<?xml version="1.0" encoding="iso-8859-1"?>
<!-- Uploaded to: SVG Repo, www.svgrepo.com, Generator: SVG Repo Mixer Tools -->
<svg height="800px" width="800px" version="1.1" id="Layer_1" xmlns="http://www.w3.org/2000/svg" xmlns:xlink="http://www.w3.org/1999/xlink" 
	 viewBox="0 0 512 512" xml:space="preserve">
<path style="fill:#B7B9BC;" d="M203.868,263.324c-2.101,0-4.115-0.834-5.602-2.32l-31.422-31.423
	c-9.568-9.569-9.609-25.114-0.118-34.733L60.346,88.47c-2.861-2.861-4.437-6.665-4.437-10.712s1.576-7.851,4.438-10.712l7.072-7.072
	c2.859-2.86,6.663-4.437,10.712-4.437c4.046,0,7.85,1.576,10.713,4.438L195.22,166.353c4.642-4.578,10.78-7.098,17.307-7.098
	c6.582,0,12.772,2.563,17.427,7.219l31.422,31.422c3.093,3.093,3.093,8.109,0,11.202l-51.906,51.906
	C207.982,262.489,205.968,263.324,203.868,263.324z"/>
<g>
	<path style="opacity:0.15;fill:#FFFFFF;enable-background:new    ;" d="M88.843,59.976c-2.861-2.862-6.666-4.439-10.714-4.439
		c-1.678,0-3.309,0.286-4.854,0.807c-1.233,3.228-1.914,6.727-1.914,10.387c0,16.091,13.045,29.135,29.135,29.135
		c6.796,0,13.045-2.334,18.001-6.236L88.843,59.976z"/>
	<path style="opacity:0.15;fill:#FFFFFF;enable-background:new    ;" d="M230.346,166.867c-4.351-4.351-10.087-7.179-16.229-7.562
		c-7.113-0.445-13.878,2.102-18.895,7.051l-8.256-8.256c-1.443,4.344-1.949,9.116-1.223,14.088
		c1.967,13.484,12.943,24.156,26.48,25.717c13.884,1.601,26.167-6.161,31.379-17.781L230.346,166.867z"/>
</g>
<path style="fill:#00A155;" d="M380.508,258.242c-15.796,15.796-40.555,17.888-50.148,18.076c-2.242,0.044-4.059-1.773-4.016-4.016
	c0.188-9.593,2.28-34.353,18.076-50.148c15.796-15.796,40.555-17.888,50.148-18.076c2.242-0.044,4.059,1.773,4.016,4.016
	C398.396,217.687,396.303,242.446,380.508,258.242z"/>
<path style="opacity:0.15;enable-background:new    ;" d="M354.712,255.872c-2.027,0-4.055-0.773-5.602-2.32
	c-3.093-3.093-3.093-8.109,0-11.202l15.505-15.505c3.095-3.093,8.109-3.093,11.204,0c3.093,3.093,3.093,8.109,0,11.202
	l-15.505,15.505C358.766,255.099,356.739,255.872,354.712,255.872z"/>
<path style="fill:#DE2A4E;" d="M425.279,280.41H87.112c0,0-1.773,26.371,2.848,48.619c3.04,14.631-4.551,24.841-1.79,45.924
	c2.308,17.63-1.058,40.328-1.058,40.328h334.999c0,0-1.075-18.788,1.557-39.254c2.668-20.749-2.719-43.11-2.821-50.821
	C420.641,309.783,425.279,280.41,425.279,280.41z"/>
<path style="fill:#F8E4C5;" d="M375.908,341.903c-16.65,2.813-35.523,5.999-54.267,5.999c-5.427,0-15.447-1.352-26.056-2.783
	c-14.386-1.94-30.692-4.14-44.844-4.462c-19.205-0.434-32.016,3.355-43.325,6.701c-14.432,4.27-25.83,7.64-47.638,1.09
	c-19.31-5.803-50.645-11.927-69.145-14.264c0.298,5.338-0.614,10.293-1.522,15.749c16.765,2.148,46.724,7.863,66.109,13.687
	c10.559,3.173,19.256,4.372,26.892,4.372c11.408,0,20.448-2.675,29.8-5.442c10.693-3.164,21.74-6.44,38.468-6.054
	c13.271,0.302,29.112,2.439,43.088,4.324c11.636,1.569,21.684,2.926,28.174,2.926c20.072,0,39.641-3.305,56.906-6.221
	c17.897-3.023,33.65-5.682,45.467-4.1c-0.429-5.891-1.139-11.394-1.779-16.083C408.863,336.353,393.32,338.963,375.908,341.903z
	 M411.707,373.261c-17.579,3.166-44.144,7.951-71.277,6.106c-2.41-0.164-6.464-0.559-11.597-1.058
	c-26.418-2.573-81.388-7.926-124.074-3.002c-43.844,5.063-98.026-5.107-117.206-9.536c0.004,2.833,0.182,5.874,0.616,9.184
	c0.313,2.386,0.518,4.866,0.645,7.369c25,5.387,76.712,13.458,117.76,8.722c41.016-4.735,94.852,0.511,120.724,3.031
	c5.261,0.512,9.416,0.917,12.057,1.097c4.575,0.311,9.114,0.45,13.59,0.45c23.985,0,46.11-3.985,61.571-6.77
	c2.882-0.52,5.603-1.009,8.017-1.411c0.265-3.665,0.632-7.507,1.134-11.413c0.208-1.614,0.361-3.237,0.477-4.864
	C420.717,371.643,416.612,372.378,411.707,373.261z M103.693,325.639c19.64,3.16,46.538,7.488,66.183,7.488
	c18.155,0,40.377-2.192,61.865-4.312c26.755-2.639,54.423-5.37,71.473-3.449c35.774,4.024,91.762,1.333,117.628-1.782
	c0.033-4.667,0.435-10.352,0.984-16.047c-21.001,2.801-80.148,6.212-116.84,2.086c-18.712-2.104-45.956,0.582-74.8,3.427
	c-21.107,2.082-42.934,4.235-60.311,4.235c-18.377,0-44.554-4.212-63.666-7.286c-7.65-1.23-14.035-2.257-19.006-2.894
	c0.32,5.218,0.857,10.765,1.723,16.228C93.241,323.957,98.391,324.786,103.693,325.639z"/>
<path style="fill:#C39774;" d="M492.117,448.54H19.883c-6.606,0-11.962-5.356-11.962-11.962v-16.947
	c0-6.606,5.356-11.962,11.962-11.962h472.234c6.606,0,11.962,5.356,11.962,11.962v16.947
	C504.079,443.186,498.724,448.54,492.117,448.54z"/>
<path style="opacity:0.15;enable-background:new    ;" d="M501.95,438.708H29.716c-6.606,0-11.962-5.356-11.962-11.962v-16.947
	c0-0.667,0.069-1.318,0.173-1.956c-5.674,0.936-10.006,5.849-10.006,11.789v16.947c0,6.606,5.356,11.962,11.962,11.962h472.235
	c5.939,0,10.853-4.332,11.789-10.006C503.268,438.64,502.617,438.708,501.95,438.708z"/>
<path style="opacity:0.1;enable-background:new    ;" d="M419.918,280.41H87.112c0,0-0.843,12.537,0.149,27.614
	c0.41-0.029,0.825-0.096,1.24-0.22c10.964-3.254,31.999-8.802,47.091-8.504c21.284,0.419,77.356,10.789,96.458,10.789
	s58.534-10.789,75.453-10.789c14.984,0,84.704,8.461,114.124,10.397c0.97-10.81,2.574-22.095,3.289-26.892
	C423.442,281.71,421.753,280.89,419.918,280.41z"/>
<path style="fill:#F8E4C5;" d="M81.199,282.275v10.231c0,3.8,3.659,6.523,7.301,5.441c10.964-3.254,31.999-8.802,47.091-8.504
	c21.284,0.419,77.356,10.789,96.458,10.789s58.534-10.789,75.453-10.789c15.559,0,90.146,9.125,117.337,10.591
	c3.248,0.175,5.969-2.419,5.969-5.672v-9.69c0-7.637-5.881-13.987-13.497-14.56c-22.104-1.665-68.535-4.642-117.941-4.642
	c-95.647,0-110.433-5.524-150.567-5.524c-21.15,0-43.669,4.854-56.643,8.188C85.705,269.792,81.199,275.611,81.199,282.275z"/>
<path d="M492.117,399.748H429.88c0.149-6.561,0.588-14.499,1.643-22.711c2.018-15.69-0.224-31.954-1.707-42.716
	c-0.55-3.993-1.027-7.443-1.05-9.22c-0.057-4.295,0.308-10.44,1.063-17.977c1.716-0.632,3.305-1.606,4.652-2.883
	c2.7-2.558,4.247-6.158,4.247-9.879v-9.69c0-11.715-9.146-21.58-20.822-22.459c-7.387-0.557-17.131-1.233-28.566-1.896
	c14.839-17.645,16.965-41.964,17.161-52.065c0.063-3.212-1.201-6.355-3.467-8.622c-2.269-2.268-5.408-3.532-8.621-3.468
	c-10.796,0.211-37.823,2.621-55.596,20.394c-11.942,11.943-17.02,27.903-19.097,41.155c-6.689-0.102-13.488-0.161-20.351-0.161
	c-11.228,0-21.312-0.076-30.457-0.21l-27.888-27.888l14.75-14.75l30.651,30.65c1.547,1.546,3.575,2.32,5.602,2.32
	c2.027,0,4.055-0.773,5.602-2.32c3.093-3.093,3.093-8.109,0-11.202l-36.251-36.251c-0.003-0.003-0.007-0.006-0.011-0.01
	l-31.413-31.412h0.001c-4.654-4.656-10.845-7.219-17.427-7.219c-6.527,0-12.665,2.52-17.306,7.099L88.842,59.975
	c-2.861-2.861-6.665-4.438-10.713-4.438c-4.046,0-7.85,1.576-10.713,4.438l-7.07,7.071c-2.862,2.861-4.438,6.665-4.438,10.712
	c0,4.047,1.576,7.851,4.437,10.712l106.379,106.38c-4.579,4.641-7.099,10.779-7.099,17.306c0,6.583,2.564,12.772,7.219,17.427
	l24.336,24.337c-14.146-1.018-26.401-1.894-42.377-1.894c-21.308,0-43.635,4.588-58.613,8.438
	c-9.957,2.558-16.912,11.528-16.912,21.814v10.23c0,4.333,1.992,8.305,5.463,10.896c0.114,0.086,0.237,0.151,0.352,0.232
	c0.436,10.061,1.477,19.131,3.112,27.006c1.166,5.612,0.331,10.597-0.728,16.908c-1.222,7.289-2.743,16.36-1.163,28.433
	c1.014,7.742,0.819,16.74,0.378,23.767H19.883C8.919,399.748,0,408.668,0,419.632v16.947c0,10.963,8.919,19.883,19.883,19.883
	h472.234c10.964,0,19.883-8.919,19.883-19.883v-16.947C512,408.668,503.081,399.748,492.117,399.748z M350.02,227.755
	c4.316-4.315,16.613-14.092,40.471-15.584c-1.491,23.856-11.268,36.154-15.584,40.47c-2.418,2.416-5.284,4.585-8.494,6.495
	c-9.627-0.432-19.93-0.814-30.674-1.095C337.506,248.496,341.41,236.365,350.02,227.755z M246.006,256.838
	c-12.029-0.359-22.062-0.825-30.827-1.325l-0.109-0.109l14.75-14.75L246.006,256.838z M178.047,218.379
	c-1.662-1.662-2.578-3.873-2.578-6.224s0.916-4.56,2.579-6.224l5.48-5.481c3.093-3.093,3.093-8.109,0-11.202L72.039,77.759
	l6.091-6.092l111.489,111.49c3.093,3.093,8.109,3.095,11.202,0.001l5.482-5.481c1.662-1.662,3.873-2.578,6.224-2.578
	s4.56,0.916,6.224,2.578c0,0,0,0,0.001,0l25.821,25.821l-20.347,20.347c-0.002,0.002-0.003,0.003-0.005,0.005
	c-0.002,0.002-0.003,0.003-0.005,0.005l-20.347,20.347L178.047,218.379z M89.121,282.275c0-3.051,2.061-5.712,5.011-6.47
	c11.539-2.966,33.984-7.939,54.672-7.939c15.493,0,26.953,0.825,41.465,1.869c6.092,0.438,12.593,0.905,19.969,1.354
	c0.512,0.102,1.033,0.155,1.554,0.155c0.192,0,0.384-0.014,0.577-0.027c19.761,1.165,45.876,2.173,87.003,2.173
	c48.73,0,94.438,2.894,117.346,4.62c3.46,0.261,6.17,3.186,6.17,6.661v7.312c-13.191-0.836-35.403-3.119-56.928-5.331
	c-25.668-2.638-49.911-5.13-58.457-5.13c-8.94,0-22.601,2.568-37.065,5.285c-14.398,2.706-29.284,5.504-38.388,5.504
	c-9.111,0-28.356-2.67-46.966-5.251c-19.719-2.735-38.345-5.32-49.336-5.536c-0.431-0.008-0.867-0.013-1.306-0.013
	c-14.694,0-33.62,4.659-45.32,8.007V282.275z M96.024,373.926c-1.273-9.728-0.077-16.86,1.078-23.758
	c1.171-6.995,2.385-14.227,0.614-22.75c-1.369-6.587-2.29-14.486-2.725-23.096c16.46-4.621,31.011-7.142,40.444-6.959
	c10.055,0.199,29.075,2.837,47.471,5.388c20.024,2.778,38.937,5.401,49.142,5.401c10.578,0,26.204-2.936,41.314-5.776
	c13.114-2.464,26.674-5.013,34.138-5.013c7.734,0,32.696,2.566,56.837,5.047c17.817,1.831,36.098,3.71,49.562,4.798
	c-0.709,7.432-1.036,13.502-0.975,18.101c0.036,2.76,0.548,6.473,1.197,11.175c1.369,9.929,3.437,24.935,1.689,38.532
	c-1.156,8.994-1.624,17.643-1.776,24.731H96.57C97.041,391.704,97.126,382.351,96.024,373.926z M496.158,436.578
	c0,2.227-1.813,4.041-4.041,4.041H19.883c-2.227,0-4.041-1.812-4.041-4.041v-16.947c0-2.228,1.813-4.041,4.041-4.041h472.234
	c2.227,0,4.041,1.812,4.041,4.041L496.158,436.578L496.158,436.578z"/>
</svg>